<?xml version="1.0" encoding="iso-8859-1"?>
<!-- Generator: Adobe Illustrator 19.0.0, SVG Export Plug-In . SVG Version: 6.00 Build 0)  -->
<svg version="1.1" id="Capa_1" xmlns="http://www.w3.org/2000/svg" xmlns:xlink="http://www.w3.org/1999/xlink" x="0px" y="0px"
	 viewBox="0 0 512.058 512.058" style="enable-background:new 0 0 512.058 512.058;" xml:space="preserve">
<g>
	<g>
		<path d="M307.258,178.655h204.8v-76.8c0-14.138-11.461-25.6-25.6-25.6V60.553c0.12-14.138-11.244-25.696-25.382-25.816
			c-1.186-0.01-2.371,0.062-3.546,0.216c-37.205,5.035-59.733,19.541-64,41.131H25.658c-14.138,0-25.6,11.461-25.6,25.6v76.8h184.32
			c4.713,0,8.533,3.82,8.533,8.533s-3.82,8.533-8.533,8.533H0.058v8.533c0,13.909,17.067,19.627,24.405,22.016l5.205,1.621
			c3.038,0.868,6.028,1.894,8.96,3.072c2.613,1.013,4.972,2.586,6.912,4.608c3.852,4.431,6.237,9.946,6.827,15.787
			c1.635,14.189-0.06,28.564-4.949,41.984c-5.448,14.815-12.246,29.097-20.309,42.667l-7.253,13.483
			c-8.789,17.067-19.797,37.461-19.797,59.733c-0.819,22.28,7.114,43.996,22.101,60.501c4.837,4.981,11.489,7.783,18.432,7.765
			h98.731c9.763,0.079,18.685-5.514,22.869-14.336c5.717-12.629,2.304-29.355-9.899-49.749
			c-14.592-24.32,9.216-65.195,36.437-95.232c1.613-1.788,3.907-2.81,6.315-2.816h73.216c11.378,0,21.39-7.509,24.576-18.432
			c5.888-20.139,23.467-66.901,57.088-66.901h136.533c14.138,0,25.6-11.461,25.6-25.6v-8.533h-204.8
			c-4.713,0-8.533-3.82-8.533-8.533S302.545,178.655,307.258,178.655z M278.671,238.388c-5.385,9.597-9.624,19.793-12.629,30.379
			c-2.124,7.282-8.799,12.288-16.384,12.288h-61.867c-9.426,0-17.067-7.641-17.067-17.067v-34.133
			c0-9.426,7.641-17.067,17.067-17.067h76.117c6.152-0.055,11.857,3.205,14.933,8.533
			C281.838,226.632,281.773,233.138,278.671,238.388z M247.524,127.454c-4.713,0-8.533-3.821-8.533-8.533v-25.6h110.933v25.6
			c0,4.713-3.82,8.533-8.533,8.533H247.524z"/>
	</g>
</g>
<g>
</g>
<g>
</g>
<g>
</g>
<g>
</g>
<g>
</g>
<g>
</g>
<g>
</g>
<g>
</g>
<g>
</g>
<g>
</g>
<g>
</g>
<g>
</g>
<g>
</g>
<g>
</g>
<g>
</g>
</svg>
