<?xml version="1.0" encoding="iso-8859-1"?>
<!-- Generator: Adobe Illustrator 19.0.0, SVG Export Plug-In . SVG Version: 6.00 Build 0)  -->
<svg version="1.1" id="Capa_1" xmlns="http://www.w3.org/2000/svg" xmlns:xlink="http://www.w3.org/1999/xlink" x="0px" y="0px"
	 viewBox="0 0 508.343 508.343" style="enable-background:new 0 0 508.343 508.343;" xml:space="preserve">
<g>
	<g>
		<path d="M503.576,17.762L490.691,4.876c-6.45-6.48-16.932-6.505-23.412-0.055c-0.018,0.018-0.037,0.037-0.055,0.055l-4.779,5.461
			c-17.925-4.96-37.133,0.054-50.347,13.141l-12.203,12.203c-12.939,13.018-17.921,31.966-13.056,49.664l-5.205,5.205l-6.059-6.571
			c-6.593-6.285-16.959-6.285-23.552,0L217.112,218.466c-0.367,0.405-0.709,0.833-1.024,1.28c-5.825-1.786-12.16-0.21-16.469,4.096
			l-98.133,98.133c-6.457,6.407-6.497,16.834-0.09,23.291c0.03,0.03,0.06,0.06,0.09,0.09l2.56,2.56L6.851,419.17
			c-3.882,2.922-6.334,7.361-6.741,12.203c-0.398,4.817,1.351,9.564,4.779,12.971l59.221,59.136
			c3.129,3.06,7.314,4.802,11.691,4.864h1.109c4.856-0.352,9.301-2.856,12.117-6.827l70.741-97.451l3.072,2.987
			c6.461,6.445,16.92,6.445,23.381,0l24.832-24.832l79.445,79.445c6.359,6.504,16.786,6.621,23.29,0.262
			c0.088-0.086,0.176-0.174,0.262-0.262l12.885-12.885c3.139-3.077,4.894-7.296,4.864-11.691c0.015-4.417-1.737-8.657-4.864-11.776
			l-46.933-47.104l-8.533-43.605c-0.613-3.056-2.095-5.871-4.267-8.107l17.664-17.664c3.083-3.107,4.803-7.314,4.779-11.691
			c0.003-1.624-0.257-3.237-0.768-4.779l1.28-0.939l42.667-42.667l73.387,73.387c6.45,6.48,16.932,6.505,23.412,0.055
			c0.018-0.018,0.037-0.037,0.055-0.055l12.885-12.885c6.48-6.45,6.505-16.932,0.055-23.412c-0.018-0.018-0.037-0.037-0.055-0.055
			l-39.339-39.424l10.24-10.155c14.677-14.848,12.8-39.936-3.755-57.003l-3.669-3.669l18.688-18.688
			c6.285-6.593,6.285-16.959,0-23.552l-6.485-6.485l4.437-5.12c17.925,4.96,37.133-0.054,50.347-13.141l12.203-12.203
			c12.939-12.983,17.951-31.892,13.141-49.579l5.205-5.461C509.861,34.721,509.861,24.354,503.576,17.762z M126.147,357.9
			c-3.309-3.328-3.309-8.704,0-12.032l93.867-93.867c3.328-3.309,8.704-3.309,12.032,0c3.309,3.328,3.309,8.704,0,12.032
			L138.179,357.9C134.85,361.209,129.475,361.209,126.147,357.9z M256.5,288.475c-0.016,0.017-0.033,0.033-0.049,0.049
			l-93.867,93.867c-3.342,3.323-8.745,3.307-12.068-0.035c-0.017-0.017-0.033-0.033-0.049-0.05h0.085
			c-3.309-3.328-3.309-8.704,0-12.032l93.867-93.867c3.328-3.309,8.704-3.309,12.032,0
			C259.797,279.726,259.819,285.129,256.5,288.475z M401.603,223.756l-9.899,10.496l-22.272-22.272l24.32-24.235l3.755,3.499
			C407.576,201.314,409.453,215.906,401.603,223.756z"/>
	</g>
</g>
<g>
</g>
<g>
</g>
<g>
</g>
<g>
</g>
<g>
</g>
<g>
</g>
<g>
</g>
<g>
</g>
<g>
</g>
<g>
</g>
<g>
</g>
<g>
</g>
<g>
</g>
<g>
</g>
<g>
</g>
</svg>
