<?xml version="1.0" encoding="iso-8859-1"?>
<!-- Generator: Adobe Illustrator 19.0.0, SVG Export Plug-In . SVG Version: 6.00 Build 0)  -->
<svg version="1.1" id="Capa_1" xmlns="http://www.w3.org/2000/svg" xmlns:xlink="http://www.w3.org/1999/xlink" x="0px" y="0px"
	 viewBox="0 0 512 512" style="enable-background:new 0 0 512 512;" xml:space="preserve">
<g>
	<g>
		<path d="M144.185,487.304l-17.835-17.92l18.347-18.176l-77.909-77.909l-18.432,18.347l-17.664-17.664
			c-3.52-3.327-9.024-3.327-12.544,0c-16.599,16.651-16.599,43.594,0,60.245l65.451,65.109c0.11,0.112,0.221,0.223,0.333,0.333
			c16.754,16.57,43.769,16.421,60.339-0.333C147.556,495.984,147.518,490.609,144.185,487.304z"/>
	</g>
</g>
<g>
	<g>
		<polygon points="157.071,414.514 103.311,360.754 91.279,348.722 78.905,361.01 156.815,438.92 169.188,426.632 		"/>
	</g>
</g>
<g>
	<g>
		<polygon points="181.476,390.194 127.716,336.349 115.684,324.317 103.311,336.605 115.343,348.722 169.103,402.482 
			181.22,414.514 193.508,402.226 		"/>
	</g>
</g>
<g>
	<g>
		<polygon points="152.121,312.029 140.004,299.912 127.716,312.285 139.748,324.317 193.593,378.077 205.625,390.109 
			217.913,377.821 		"/>
	</g>
</g>
<g>
	<g>
		<path d="M483.897,6.45c-0.454-0.571-0.943-1.112-1.466-1.621c-6.758-6.57-17.563-6.418-24.133,0.341L353.167,110.984
			c-3.931,3.842-9.783,4.952-14.848,2.816c-15.961-6.313-34.152-2.446-46.165,9.813l-5.888,5.888l12.288,11.861l11.947,11.861
			c0.017,0.016,0.033,0.033,0.049,0.049c3.319,3.346,3.297,8.749-0.049,12.068c-1.61,1.597-3.79,2.488-6.059,2.475
			c-2.268,0.013-4.448-0.877-6.059-2.475l-23.979-23.979l-12.373,12.288l12.117,12.373l11.947,11.861
			c0.017,0.016,0.033,0.033,0.049,0.049c3.319,3.346,3.297,8.749-0.049,12.068c-0.016,0.017-0.033,0.033-0.049,0.049
			c-3.346,3.319-8.749,3.297-12.068-0.049l-11.861-11.947l-12.117-12.117l-12.373,12.373l12.117,12.373l11.947,11.861
			c1.628,1.614,2.537,3.816,2.524,6.108c-0.027,4.713-3.87,8.511-8.583,8.484c-2.281-0.009-4.462-0.931-6.059-2.56L225.593,190.6
			l-12.288,12.373l23.979,23.979c1.628,1.614,2.537,3.816,2.524,6.108c-0.027,4.713-3.87,8.511-8.583,8.484
			c-2.251-0.032-4.398-0.952-5.973-2.56l-12.203-12.117l-12.117-12.117L188.9,227.037l12.032,11.947l12.032,12.117
			c3.309,3.328,3.309,8.704,0,12.032c-3.328,3.309-8.704,3.309-12.032,0L188.9,251.101l-12.117-12.117l-12.629,12.459l18.005,18.091
			l35.84,35.755L483.556,39.73l13.056-13.056C493.169,19.465,488.903,12.678,483.897,6.45z"/>
	</g>
</g>
<g>
	<g>
		<path d="M503.012,44.424l-14.507,14.592L230.457,317.405l35.925,35.925L475.62,143.666
			C501.784,117.831,512.219,80.022,503.012,44.424z"/>
	</g>
</g>
<g>
	<g>
		<path d="M283.961,371.25l-65.963-65.963L182.5,269.618l-18.005-18.091l-17.92-17.835c-0.286-0.334-0.597-0.645-0.931-0.931
			c-3.58-3.065-8.966-2.649-12.032,0.931s-2.649,8.966,0.931,12.032l29.867,29.867l-12.288,12.288l12.032,12.032l65.877,65.877
			l12.288-12.373l29.867,29.867c1.596,1.629,3.778,2.551,6.059,2.56c2.281-0.009,4.462-0.931,6.059-2.56
			C287.519,379.861,287.366,374.484,283.961,371.25z"/>
	</g>
</g>
<g>
</g>
<g>
</g>
<g>
</g>
<g>
</g>
<g>
</g>
<g>
</g>
<g>
</g>
<g>
</g>
<g>
</g>
<g>
</g>
<g>
</g>
<g>
</g>
<g>
</g>
<g>
</g>
<g>
</g>
</svg>
