<?xml version="1.0" encoding="iso-8859-1"?>
<!-- Generator: Adobe Illustrator 19.0.0, SVG Export Plug-In . SVG Version: 6.00 Build 0)  -->
<svg version="1.1" id="Capa_1" xmlns="http://www.w3.org/2000/svg" xmlns:xlink="http://www.w3.org/1999/xlink" x="0px" y="0px"
	 viewBox="0 0 511.473 511.473" style="enable-background:new 0 0 511.473 511.473;" xml:space="preserve">
<g>
	<g>
		<path d="M457.62,35.598c0.049-4.608-1.766-9.04-5.035-12.288L434.239,4.963c-6.657-6.617-17.407-6.617-24.064,0l-57.259,55.125
			c-6.799-6.513-17.521-6.513-24.32,0L304.02,84.75l-6.229-6.229c-6.799-6.513-17.521-6.513-24.32,0l-18.603-18.005
			c-3.372-3.399-8.016-5.226-12.8-5.035c-4.823,0.167-9.349,2.369-12.459,6.059c-27.989,33.109-36.523,62.976-23.04,83.541
			l-98.816,98.645L95.38,231.352c-6.661-6.669-17.467-6.675-24.136-0.013c-0.004,0.005-0.009,0.009-0.013,0.013l-12.373,12.373
			c-6.669,6.661-6.675,17.467-0.013,24.136c0.005,0.004,0.009,0.009,0.013,0.013l12.373,12.373l-3.499,3.499
			c-3.311,3.29-5.131,7.792-5.035,12.459C62.218,311.21,73.977,323.77,88.98,324.28c7.011,0.201,13.797-2.482,18.773-7.424
			l6.229-6.144l55.04,55.04c4.461,4.471,11.026,6.112,17.067,4.267c0.47,0.632,0.983,1.231,1.536,1.792L309.823,494.35
			c6.614,6.716,17.419,6.799,24.135,0.185c0.062-0.061,0.124-0.123,0.185-0.185l12.544,12.032
			c6.614,6.716,17.419,6.799,24.135,0.185c0.062-0.061,0.124-0.123,0.185-0.185l24.491-24.491
			c6.716-6.614,6.799-17.419,0.185-24.135c-0.061-0.062-0.123-0.124-0.185-0.185l-12.203-12.203
			c6.716-6.614,6.798-17.419,0.185-24.135c-0.061-0.062-0.123-0.124-0.185-0.185l-79.531-79.531l29.269-29.781
			c17.067-17.067,15.104-47.957-5.12-68.267l-6.144-6.144l55.125-55.125c6.716-6.614,6.799-17.419,0.185-24.135
			c-0.061-0.062-0.123-0.124-0.185-0.185l-6.229-6.229l24.576-24.235c6.692-6.638,6.737-17.443,0.099-24.136
			c-0.033-0.033-0.066-0.066-0.099-0.099l57.088-55.296C455.692,44.68,457.602,40.243,457.62,35.598z M327.572,279.566
			c0.974,7.346-1.408,14.741-6.485,20.139l-29.696,29.525l-30.549-30.549l11.093-11.179c6.057,8.979,15.906,14.675,26.709,15.445
			c2.903-0.03,5.783-0.519,8.533-1.451c4.477-1.484,6.903-6.317,5.419-10.795c-1.485-4.477-6.318-6.903-10.795-5.419
			c-7.509,2.56-14.251-5.12-17.749-10.155l24.064-24.149l1.536-1.536l6.144,6.144C322.416,261.948,326.585,270.438,327.572,279.566z
			"/>
	</g>
</g>
<g>
</g>
<g>
</g>
<g>
</g>
<g>
</g>
<g>
</g>
<g>
</g>
<g>
</g>
<g>
</g>
<g>
</g>
<g>
</g>
<g>
</g>
<g>
</g>
<g>
</g>
<g>
</g>
<g>
</g>
</svg>
